<svg width="1089" height="1023" viewBox="0 0 1089 1023" fill="none" xmlns="http://www.w3.org/2000/svg">
<path d="M1041.56 715.727C1050.23 671.727 1054.56 644.394 1054.56 633.727L860.559 642.627C860.559 642.627 934.88 506.315 909.589 456.865C884.298 407.415 917.343 299.78 917.343 258.447C917.343 197.114 890.01 137.781 835.343 80.4478C816.676 80.4478 793.343 71.1148 765.343 52.4478C741.343 35.1149 720.01 27.7819 701.343 30.4489C682.676 14.4489 664.009 6.44885 645.342 6.44885C608.009 6.44885 551.009 5.44885 474.342 3.44885C397.675 1.44885 340.008 0.448853 301.341 0.448853C270.674 0.448853 242.007 2.44885 215.34 6.44885L197.34 26.4489C197.34 49.1159 207.34 60.4489 227.34 60.4489C234.007 60.4489 239.34 58.4489 243.34 54.4489C246.007 57.1159 260.674 69.1158 287.341 90.4488C303.341 103.782 311.341 121.115 311.341 142.448C311.341 153.115 308.008 168.115 301.341 187.448C294.674 206.781 291.341 221.114 291.341 230.447L301.341 260.447L319.341 258.447C324.674 267.78 327.341 274.447 327.341 278.447L309.341 301.447C297.341 316.78 291.341 330.447 291.341 342.447C291.341 342.447 327.341 419.423 311.341 439.816C295.341 460.209 299.865 547.146 295.603 564.413C291.341 581.681 311.341 634.723 310.56 648.625C309.779 662.527 257.34 684.689 227.34 659.706C197.34 634.723 148.559 634.723 148.559 634.723C141.892 691.39 138.559 734.39 138.559 763.723C138.559 783.723 139.559 808.056 141.559 836.723C143.559 865.39 142.559 853.595 142.559 864.262C142.559 920.262 101.226 912.337 38.5591 963.004L10.5591 959.004C3.89209 972.337 0.559082 985.004 0.559082 997.004C0.559082 1014.34 11.8921 1023 34.5591 1023C63.8921 1023 108.559 1019 168.559 1011C228.559 1003 272.559 999.004 300.559 999.004C304.559 999.004 311.892 999.671 322.559 1001C333.226 1002.34 341.893 1003 348.56 1003C375.227 1003 388.56 989.004 388.56 961.004C388.56 947.671 376.56 935.671 352.56 925.004C324.56 913.004 306.56 901.671 298.56 891.004C286.561 881.225 276.516 894.369 272.561 872.623C272.561 805.956 277.228 765.956 286.561 752.623C291.894 744.623 323.227 729.956 380.56 708.623C391.227 721.956 404.56 728.623 420.56 728.623C447.227 728.623 460.56 717.293 460.56 694.626C460.56 677.293 445.893 668.626 416.56 668.626C399.227 668.626 388.56 660.626 380.56 668.626C380.56 668.626 365.648 634.723 370.968 602.96C376.288 571.197 399.341 541.781 399.341 524.935C399.341 508.088 392.248 439.816 399.341 419.423C406.435 399.03 435.341 358.45 435.341 358.45C435.341 351.783 436.341 342.45 438.341 330.45C440.341 318.45 441.341 309.783 441.341 304.45V228.45C441.341 117.783 452.674 62.4497 475.341 62.4497C480.674 62.4497 487.341 63.7827 495.341 66.4497C503.341 69.1167 509.341 70.4497 513.341 70.4497C554.674 70.4497 574.007 69.7827 571.34 68.4497C575.34 69.7827 584.007 73.1157 597.34 78.4487C610.673 83.7818 618.673 86.4487 621.34 86.4487C684.007 86.4487 729.34 125.782 757.34 204.449C761.34 215.116 763.341 248.449 763.341 304.449C763.341 319.116 758.008 335.783 747.341 354.45C738.008 369.117 783.231 460.968 773.898 476.968C773.898 476.968 790.456 536.506 773.898 564.413C757.34 592.32 712.559 648.625 712.559 648.625C695.226 648.625 658.226 678.294 621.559 673.627C584.892 668.96 557.892 666.627 540.559 666.627C527.226 666.627 516.559 674.627 508.559 690.627L514.559 720.627C529.226 729.96 548.559 734.627 572.559 734.627C588.559 734.627 612.226 731.627 643.559 725.627C674.892 719.627 697.892 716.627 712.559 716.627C820.559 716.627 874.559 746.627 874.559 806.627C874.559 823.96 871.559 850.293 865.559 885.626C860.284 896.178 822.718 911.994 797.386 922.659L796.559 923.008C775.226 932.341 764.559 949.674 764.559 975.007C764.559 996.34 778.559 1009.67 806.559 1015.01H878.559C894.559 1015.01 917.559 1011.34 947.559 1004.01C977.559 996.673 999.892 993.006 1014.56 993.006C1034.56 993.006 1055.89 997.673 1078.56 1007.01L1088.56 979.006C1088.56 977.673 1076.56 949.34 1052.56 894.007C1028.56 838.674 1028.56 876.394 1028.56 821.727C1028.56 795.06 1032.89 759.727 1041.56 715.727Z" fill="black"/>
</svg>
